#!OML:ASF F:\VICON\USERDATA\INSTALL\rory3\rory3.ASF
:FULLY-SPECIFIED
:DEGREES
1173
root 3.13435 19.5489 1.07376 19.0054 -6.31725 -7.39378
lowerback -1.4368 0.188006 4.81189
upperback -7.46474 0.505947 2.5976
thorax -6.97643 0.0388839 0.00710252
lowerneck -18.1697 -1.58617 -3.70192
upperneck 27.2423 -1.47551 1.152
head 12.0133 -0.909687 0.829504
rclavicle -2.65793e-014 4.85532e-014
rhumerus -42.0331 10.5385 -91.0589
rradius 74.0958
rwrist 7.39696
rhand -20.2943 -44.7775
rfingers 7.12502
rthumb 6.0557 -794.671
lclavicle -2.65793e-014 4.85532e-014
lhumerus -43.4453 -20.9573 83.9303
lradius 59.5655
lwrist -1.08026
lhand -31.6828 -41.6937
lfingers 7.12502
lthumb -4.94246 -11.7714
rfemur -81.2139 11.1955 25.6939
rtibia 131.678
rfoot 3.05763 -11.1655
rtoes 2.82618
lfemur -23.7482 -8.5605 -15.1874
ltibia 18.1472
lfoot 6.16047 0.280109
ltoes -4.3049
1174
root 3.13345 19.4783 1.08898 20.1055 -7.58687 -7.99805
lowerback -2.20545 0.736236 5.00273
upperback -7.70808 1.20153 2.63177
thorax -6.77077 0.374074 -0.0849961
lowerneck -18.0448 -1.61042 -3.63722
upperneck 27.1153 -1.49306 1.01306
head 11.9372 -0.928338 0.763959
rclavicle -8.22316e-016 -9.86469e-015
rhumerus -41.8678 10.6932 -90.9533
rradius 73.9986
rwrist 7.30754
rhand -20.0576 -44.7229
rfingers 7.12502
rthumb 6.28419 -794.61
lclavicle -8.22316e-016 -9.86469e-015
lhumerus -43.863 -19.9454 84.1617
lradius 59.3913
lwrist -1.50183
lhand -31.6708 -42.1899
lfingers 7.12502
lthumb -4.93088 -12.2672
rfemur -81.9202 13.4164 25.956
rtibia 131.648
rfoot 3.8408 -11.6439
rtoes 1.02332
lfemur -25.0017 -7.99176 -14.7365
ltibia 18.7539
lfoot 6.464 1.36753
ltoes -3.27874
1175
root 3.13567 19.403 1.1212 20.6966 -8.17922 -8.34318
lowerback -2.71837 1.01485 5.25419
upperback -7.86866 1.54581 2.61389
thorax -6.63271 0.529551 -0.246523
lowerneck -17.9566 -1.64358 -3.6774
upperneck 27.1356 -1.55874 1.10119
head 11.9301 -0.9509 0.794071
rclavicle -8.02826e-015 -5.66288e-014
rhumerus -41.7356 10.8191 -90.8907
rradius 73.8133
rwrist 7.06217
rhand -20.0041 -44.4174
rfingers 7.12502
rthumb 6.33584 -794.303
lclavicle -8.02826e-015 -5.66288e-014
lhumerus -44.247 -18.9039 84.2829
lradius 59.0688
lwrist -2.09375
lhand -31.645 -42.481
lfingers 7.12502
lthumb -4.90592 -12.5578
rfemur -81.4968 14.5856 26.3253
rtibia 131.493
rfoot 3.99773 -12.1628
rtoes 0.272854
lfemur -25.7219 -7.71375 -14.5502
ltibia 19.371
lfoot 7.01529 2.22487
ltoes -3.29404
1176
root 3.14236 19.3202 1.15789 20.7484 -8.39965 -8.27588
lowerback -2.63076 1.10939 5.30135
upperback -8.05132 1.68419 2.51265
thorax -6.87154 0.584254 -0.383641
lowerneck -17.7211 -1.65668 -3.82562
upperneck 27.293 -1.60489 1.3054
head 11.9486 -0.962725 0.890196
rclavicle 3.90736e-015 2.55687e-014
rhumerus -41.9233 10.786 -90.8085
rradius 73.6844
rwrist 7.04467
rhand -20.0674 -44.062
rfingers 7.12502
rthumb 6.27477 -793.949
lclavicle 3.90736e-015 2.55687e-014
lhumerus -44.8217 -18.0563 84.5038
lradius 58.5619
lwrist -2.54136
lhand -31.3941 -42.2998
lfingers 7.12502
lthumb -4.66365 -12.3712
rfemur -80.3171 14.8097 26.4858
rtibia 131.298
rfoot 3.73329 -12.465
rtoes 0.752191
lfemur -26.0619 -7.59699 -14.8324
ltibia 20.1827
lfoot 7.60662 3.01503
ltoes -3.48505
1177
root 3.15198 19.2259 1.19454 20.724 -8.40525 -8.16362
lowerback -2.56826 1.1689 5.42805
upperback -8.11605 1.76845 2.39725
thorax -6.96826 0.610865 -0.578416
lowerneck -17.5324 -1.728 -3.95955
upperneck 27.294 -1.70056 1.3938
head 11.9162 -1.00877 0.932266
rclavicle 3.75827e-014 -3.12092e-014
rhumerus -41.9409 10.5879 -90.5949
rradius 73.6268
rwrist 7.0785
rhand -20.1578 -43.2464
rfingers 7.12502
rthumb 6.18751 -793.136
lclavicle 3.75827e-014 -3.12092e-014
lhumerus -45.216 -17.2461 84.6357
lradius 58.2854
lwrist -2.50126
lhand -31.0351 -42.2718
lfingers 7.12502
lthumb -4.31704 -12.3358
rfemur -79.0197 14.7048 26.6847
rtibia 131.033
rfoot 3.54067 -12.722
rtoes 0.837407
lfemur -26.2276 -7.18803 -15.2628
ltibia 20.8158
lfoot 8.29205 3.15663
ltoes -5.74368
1178
root 3.14415 19.1146 1.23201 20.9869 -8.62955 -8.13782
lowerback -3.00122 1.31299 5.32927
upperback -8.07789 1.92049 2.32712
thorax -6.66896 0.697675 -0.592415
lowerneck -17.6827 -1.79897 -3.93078
upperneck 27.2851 -1.78157 1.3212
head 11.9449 -1.05044 0.886908
rclavicle 1.94747e-015 -6.65929e-015
rhumerus -41.5764 10.4093 -90.339
rradius 73.4946
rwrist 6.88324
rhand -19.9482 -43.1698
rfingers 7.12502
rthumb 6.38978 -793.053
lclavicle 1.94747e-015 -6.65929e-015
lhumerus -45.2107 -16.4064 84.5912
lradius 58.0011
lwrist -2.26203
lhand -31.0292 -42.6872
lfingers 7.12502
lthumb -4.31137 -12.7511
rfemur -78.2031 14.8467 26.9755
rtibia 130.8
rfoot 3.70509 -13.0667
rtoes 0.508865
lfemur -26.5614 -6.25383 -15.7142
ltibia 21.3885
lfoot 9.43316 2.53495
ltoes -6.53532
1179
root 3.14634 19.0047 1.26732 21.247 -8.67374 -8.30976
lowerback -3.26865 1.40498 5.63782
upperback -8.10869 2.02525 2.30466
thorax -6.53698 0.732337 -0.783056
lowerneck -17.918 -1.79981 -3.85118
upperneck 27.4132 -1.7676 1.22205
head 12.0406 -1.04871 0.837398
rclavicle 1.64867e-014 -1.90336e-014
rhumerus -41.375 10.2698 -90.1038
rradius 73.441
rwrist 6.63978
rhand -19.2112 -45.287
rfingers 7.12502
rthumb 7.10129 -795.148
lclavicle 1.64867e-014 -1.90336e-014
lhumerus -45.3364 -15.4757 84.51
lradius 57.504
lwrist -2.7349
lhand -31.6084 -43.3059
lfingers 7.12502
lthumb -4.87061 -13.3819
rfemur -77.6428 14.9647 27.3067
rtibia 130.369
rfoot 3.74356 -13.2806
rtoes 2.17146
lfemur -26.8373 -5.19387 -16.0679
ltibia 22.0723
lfoot 10.167 2.30576
ltoes -6.62535
1180
root 3.13726 18.8663 1.3073 21.4762 -9.12071 -8.14687
lowerback -3.63975 1.55302 5.37173
upperback -8.16173 2.18936 2.19863
thorax -6.37429 0.829913 -0.740205
lowerneck -18.0196 -1.77593 -3.84313
upperneck 27.5013 -1.73669 1.23856
head 12.0951 -1.03208 0.846758
rclavicle 1.54679e-015 -1.1281e-014
rhumerus -41.3647 10.0635 -89.888
rradius 73.5229
rwrist 6.49527
rhand -19.6567 -43.7398
rfingers 7.12502
rthumb 6.67127 -793.615
lclavicle 1.54679e-015 -1.1281e-014
lhumerus -45.7284 -14.506 84.3233
lradius 57.2933
lwrist -3.52822
lhand -31.9262 -43.8037
lfingers 7.12502
lthumb -5.17746 -13.887
rfemur -77.3645 15.1889 27.2013
rtibia 130.154
rfoot 3.71638 -13.4472
rtoes 3.01913
lfemur -27.0671 -3.63869 -17.0017
ltibia 22.9497
lfoot 8.82823 1.72381
ltoes -7.73148
